<?xml version="1.0" encoding="UTF-8"?>
<svg viewBox="0 0 253.49313 89.229637" xmlns="http://www.w3.org/2000/svg" xmlns:xlink="http://www.w3.org/1999/xlink">
 <defs>
  <filter id="b" x="-.12375" y="-.33" width="1.2475" height="1.66">
   <feGaussianBlur stdDeviation="2.475"/>
  </filter>
  <linearGradient id="f">
   <stop stop-color="#f7f108" offset="0"/>
   <stop stop-color="#98b64a" offset="1"/>
  </linearGradient>
  <linearGradient id="e">
   <stop stop-color="#df2e07" offset="0"/>
   <stop stop-color="#a1241f" offset="1"/>
  </linearGradient>
  <linearGradient id="d">
   <stop stop-color="#df0775" offset="0"/>
   <stop stop-color="#a11f48" offset="1"/>
  </linearGradient>
  <linearGradient id="c">
   <stop stop-color="#07c9df" offset="0"/>
   <stop stop-color="#1f7fa1" offset="1"/>
  </linearGradient>
  <linearGradient id="g">
   <stop stop-color="#9ce008" offset="0"/>
   <stop stop-color="#65a320" offset="1"/>
  </linearGradient>
  <linearGradient id="a">
   <stop stop-color="#2e3436" offset="0"/>
   <stop stop-color="#2e3436" stop-opacity="0" offset="1"/>
  </linearGradient>
  <radialGradient id="v" cx="-119.59" cy="30.918" r="36" gradientTransform="matrix(1.973 3.8889e-8 -4.3805e-8 2.2224 122.6 -45.229)" gradientUnits="userSpaceOnUse" xlink:href="#e"/>
  <radialGradient id="u" cx="-160.19" cy="55.827" r="24.25" gradientTransform="matrix(.5154 0 0 .27324 336.31 454.15)" gradientUnits="userSpaceOnUse" xlink:href="#a"/>
  <radialGradient id="t" cx="-122.32" cy="953.13" r="49.5" gradientTransform="matrix(1.0152 0 0 1.1848 388.85 -646.15)" gradientUnits="userSpaceOnUse" xlink:href="#e"/>
  <radialGradient id="s" cx="-119.59" cy="30.918" r="36" gradientTransform="matrix(1.973 3.8889e-8 -4.3805e-8 2.2224 122.6 -45.229)" gradientUnits="userSpaceOnUse" xlink:href="#f"/>
  <radialGradient id="r" cx="-160.19" cy="55.827" r="24.25" gradientTransform="matrix(.5154 0 0 .27324 387.99 454.15)" gradientUnits="userSpaceOnUse" xlink:href="#a"/>
  <radialGradient id="q" cx="-122.32" cy="953.13" r="49.5" gradientTransform="matrix(1.0152 0 0 1.1848 440.53 -646.15)" gradientUnits="userSpaceOnUse" xlink:href="#f"/>
  <radialGradient id="p" cx="-119.59" cy="30.918" r="36" gradientTransform="matrix(1.973 3.8889e-8 -4.3805e-8 2.2224 122.6 -45.229)" gradientUnits="userSpaceOnUse" xlink:href="#g"/>
  <radialGradient id="o" cx="-160.19" cy="55.827" r="24.25" gradientTransform="matrix(.5154 0 0 .27324 439.96 454.15)" gradientUnits="userSpaceOnUse" xlink:href="#a"/>
  <radialGradient id="n" cx="-122.32" cy="953.13" r="49.5" gradientTransform="matrix(1.0152 0 0 1.1848 492.5 -646.15)" gradientUnits="userSpaceOnUse" xlink:href="#g"/>
  <radialGradient id="m" cx="-119.59" cy="30.918" r="36" gradientTransform="matrix(1.973 3.8889e-8 -4.3805e-8 2.2224 122.6 -45.229)" gradientUnits="userSpaceOnUse" xlink:href="#c"/>
  <radialGradient id="l" cx="-160.19" cy="55.827" r="24.25" gradientTransform="matrix(.5154 0 0 .27324 490.85 454.15)" gradientUnits="userSpaceOnUse" xlink:href="#a"/>
  <radialGradient id="k" cx="-122.32" cy="953.13" r="49.5" gradientTransform="matrix(1.0152 0 0 1.1848 543.39 -646.15)" gradientUnits="userSpaceOnUse" xlink:href="#c"/>
  <radialGradient id="j" cx="-119.59" cy="30.918" r="36" gradientTransform="matrix(1.973 3.8889e-8 -4.3805e-8 2.2224 122.6 -45.229)" gradientUnits="userSpaceOnUse" xlink:href="#d"/>
  <radialGradient id="i" cx="-160.19" cy="55.827" r="24.25" gradientTransform="matrix(.5154 0 0 .27324 542.36 454.4)" gradientUnits="userSpaceOnUse" xlink:href="#a"/>
  <radialGradient id="h" cx="-122.32" cy="953.13" r="49.5" gradientTransform="matrix(1.0152 0 0 1.1848 594.9 -645.9)" gradientUnits="userSpaceOnUse" xlink:href="#d"/>
 </defs>
 <g transform="translate(-231.4 -439.91)">
  <path transform="matrix(.7532 0 0 .7532 362.84 298.71)" d="m86 291c0 4.9706-10.745 9-24 9s-24-4.0294-24-9 10.745-9 24-9 24 4.0294 24 9z" fill-opacity=".5" filter="url(#b)"/>
  <path d="m433.54 498.56c0 14.664-4.8671 23-24 23s-24-8.3356-24-22.781 11.577-31.219 24-31.219c12.423-0.21874 24 16.554 24 31z" fill="url(#k)"/>
  <path d="m409.54 467.56c-4.9396 0-9.2678 2.1583-13 5.5881 3.2716 3.3527 7.6643 5.4119 12.5 5.4119s9.2284-2.0592 12.5-5.4119c-3.2322-3.4298-7.5604-5.5881-12-5.5881z" fill="url(#l)"/>
  <path transform="matrix(.45426 0 0 .45426 466.93 439.46)" d="m-90 37c0 19.882-16.118 36-36 36s-36-16.118-36-36 16.118-36 36-36 36 16.118 36 36z" fill="url(#m)"/>
  <path transform="matrix(.7532 0 0 .7532 311.46 298.71)" d="m86 291c0 4.9706-10.745 9-24 9s-24-4.0294-24-9 10.745-9 24-9 24 4.0294 24 9z" fill-opacity=".5" filter="url(#b)"/>
  <path d="m382.16 498.56c0 14.664-4.8671 23-24 23s-24-8.3356-24-22.781 11.577-31.219 24-31.219c12.423-0.21874 24 16.554 24 31z" fill="url(#n)"/>
  <path d="m359.16 467.56c-4.9396 0-9.2678 2.1583-13 5.5881 3.2716 3.3527 7.6643 5.4119 12.5 5.4119s9.2284-2.0592 12.5-5.4119c-3.2322-3.4298-7.5604-5.5881-12-5.5881z" fill="url(#o)"/>
  <path transform="matrix(.45426 0 0 .45426 416.04 439.46)" d="m-90 37c0 19.882-16.118 36-36 36s-36-16.118-36-36 16.118-36 36-36 36 16.118 36 36z" fill="url(#p)"/>
  <path transform="matrix(.7532 0 0 .7532 414.22 298.71)" d="m86 291c0 4.9706-10.745 9-24 9s-24-4.0294-24-9 10.745-9 24-9 24 4.0294 24 9z" fill-opacity=".5" filter="url(#b)"/>
  <path d="m484.89 498.84c0 14.482-4.8602 22.838-23.966 22.838s-23.966-8.3565-23.966-22.838 11.56-31.297 23.966-31.297 23.966 16.815 23.966 31.297z" fill="url(#h)"/>
  <path d="m460.92 467.54c-4.4391 0-8.7668 2.1576-12.499 5.5863 3.2712 3.3515 7.6634 5.41 12.499 5.41s9.2273-2.0585 12.499-5.41c-3.7317-3.4287-8.0594-5.5863-12.499-5.5863z" fill="url(#i)"/>
  <path transform="matrix(.45426 0 0 .45426 518.16 439.46)" d="m-90 37c0 19.882-16.118 36-36 36s-36-16.118-36-36 16.118-36 36-36 36 16.118 36 36z" fill="url(#j)"/>
  <path transform="matrix(.7532 0 0 .7532 208.7 298.71)" d="m86 291c0 4.9706-10.745 9-24 9s-24-4.0294-24-9 10.745-9 24-9 24 4.0294 24 9z" fill-opacity=".5" filter="url(#b)"/>
  <path d="m279.4 498.56c0 14.664-4.867 23-24 23s-24-8.3355-24-22.781 11.577-31.219 24-31.219c12.423-0.21874 24 16.554 24 31z" fill="url(#t)"/>
  <path d="m255.4 467.56c-4.9396 0-9.2678 2.1583-13 5.5881 3.2716 3.3527 7.6643 5.4119 12.5 5.4119s9.2284-2.0592 12.5-5.4119c-3.2322-3.4298-7.5604-5.5881-12-5.5881z" fill="url(#u)"/>
  <path transform="matrix(.45426 0 0 .45426 312.4 439.46)" d="m-90 37c0 19.882-16.118 36-36 36s-36-16.118-36-36 16.118-36 36-36 36 16.118 36 36z" fill="url(#v)"/>
  <path transform="matrix(.7532 0 0 .7532 260.08 298.71)" d="m86 291c0 4.9706-10.745 9-24 9s-24-4.0294-24-9 10.745-9 24-9 24 4.0294 24 9z" fill-opacity=".5" filter="url(#b)"/>
  <path d="m330.88 499.06c0 14.225-4.8878 22.596-24.102 22.596s-24.102-8.3711-24.102-22.878 11.626-31.352 24.102-31.352c12.476 0.28245 24.102 17.127 24.102 31.634z" fill="url(#q)"/>
  <path d="m306.78 467.42c-4.7906 0-9.0938 2.2167-12.804 5.7395 3.2527 3.4435 7.62 5.5584 12.428 5.5584s9.175-2.115 12.428-5.5584c-3.334-3.5228-7.6372-5.7395-12.051-5.7395z" fill="url(#r)"/>
  <path transform="matrix(.45426 0 0 .45426 364.08 439.46)" d="m-90 37c0 19.882-16.118 36-36 36s-36-16.118-36-36 16.118-36 36-36 36 16.118 36 36z" fill="url(#s)"/>
 </g>
</svg>
