<?xml version="1.0" encoding="utf-8"?>
<!-- Generator: Adobe Illustrator 24.0.1, SVG Export Plug-In . SVG Version: 6.00 Build 0)  -->
<svg version="1.1" id="Calque_1" xmlns="http://www.w3.org/2000/svg" xmlns:xlink="http://www.w3.org/1999/xlink" x="0px" y="0px"
	 viewBox="0 0 487.6 487.6" style="enable-background:new 0 0 487.6 487.6;" xml:space="preserve">
<style type="text/css">
	.st0{fill:#FFFFFF;}
	.st1{fill:#0F00B9;}
	.st2{fill:#096600;}
	.st3{fill:#8B2F00;}
	.st4{fill:#F5FF17;}
	.st5{fill:#A4FFFA;}
	.st6{fill:#FF0000;}
	.st7{fill:#E700D0;}
	.st8{fill:#FF7500;}
	.st9{fill:none;stroke:#000000;stroke-width:0.7501;stroke-miterlimit:3.0004;}
	.st10{fill:#E8EDFC;}
	.st11{fill:#CAD9FC;}
	.st12{fill:#A4C2F7;}
	.st13{fill:#7FACFA;}
	.st14{fill:#428DFF;}
</style>
<g id="XMLID_1_">
	<g>
		<path d="M487.6,0v487.6H0V0H487.6z M482.3,482.3v-61.5h-63.8v61.5H482.3z M482.3,416.3v-34.5h-51v34.5H482.3z M482.3,377.3v-34.5
			h-63.8v34.5H482.3z M482.3,338.3v-34.5h-51v34.5H482.3z M482.3,299.3v-33.8h-63.8v33.8H482.3z M482.3,260.3v-33.8h-63.8v33.8
			H482.3z M482.3,222v-34.5h-51.8V222H482.3z M482.3,183v-33.8h-63.8V183H482.3z M482.3,144.8v-34.5h-51.8v34.5H482.3z M482.3,105.8
			V70.5h-51.8v35.3H482.3z M482.3,66.8V5.3h-63.8v61.5H482.3z M427.6,416.3v-34.5h-9v34.5H427.6z M427.6,338.3v-34.5h-9v34.5H427.6z
			 M426.8,222v-34.5h-8.3V222H426.8z M426.8,144.8v-34.5h-8.3v34.5H426.8z M426.8,105.8V70.5h-8.3v35.3H426.8z M414.1,482.3v-49.5
			h-34.5v49.5H414.1z M414.1,429.1v-8.3h-34.5v8.3H414.1z M414.1,416.3V70.5H69.8v345.8H414.1z M414.1,66.8v-8.3h-34.5v8.3H414.1z
			 M414.1,54.8V5.3h-34.5v49.5H414.1z M375.8,482.3v-61.5h-34.5v61.5H375.8z M375.8,66.8V5.3h-34.5v61.5H375.8z M336.8,482.3v-49.5
			h-34.5v49.5H336.8z M336.8,429.1v-8.3h-34.5v8.3H336.8z M336.8,66.8v-8.3h-34.5v8.3H336.8z M336.8,54.8V5.3h-34.5v49.5H336.8z
			 M297.8,482.3v-61.5h-34.5v61.5H297.8z M297.8,66.8v-8.3h-34.5v8.3H297.8z M297.8,54.8V5.3h-34.5v49.5H297.8z M258.8,482.3v-61.5
			h-34.5v61.5H258.8z M258.8,66.8V5.3h-34.5v61.5H258.8z M220.5,482.3v-50.3h-35.3v50.3H220.5z M220.5,428.3v-7.5h-35.3v7.5H220.5z
			 M219.8,66.8v-8.3H186v8.3H219.8z M219.8,54.8V5.3H186v49.5H219.8z M181.5,482.3v-61.5H147v61.5H181.5z M181.5,66.8v-8.3H147v8.3
			H181.5z M181.5,54.8V5.3H147v49.5H181.5z M142.5,482.3v-50.3H108v50.3H142.5z M142.5,428.3v-7.5H108v7.5H142.5z M142.5,66.8V5.3
			H108v61.5H142.5z M103.5,482.3v-50.3H69.8v50.3H103.5z M103.5,428.3v-7.5H69.8v7.5H103.5z M103.5,66.8v-8.3H69.8v8.3H103.5z
			 M103.5,54.8V5.3H69.8v49.5H103.5z M65.3,482.3v-61.5H4.5v61.5H65.3z M65.3,416.3v-34.5H57v34.5H65.3z M65.3,377.3v-34.5H4.5v34.5
			H65.3z M65.3,338.3v-34.5H57v34.5H65.3z M65.3,300v-35.3H57V300H65.3z M65.3,261v-34.5H4.5V261H65.3z M65.3,222v-34.5H57V222H65.3
			z M65.3,183.8v-35.3H4.5v35.3H65.3z M65.3,144.8v-35.3H57v35.3H65.3z M65.3,105.8V70.5H57v35.3H65.3z M65.3,66.8V5.3H4.5v61.5
			H65.3z M53.3,416.3v-34.5H4.5v34.5H53.3z M53.3,338.3v-34.5H4.5v34.5H53.3z M53.3,300v-35.3H4.5V300H53.3z M53.3,222v-34.5H4.5
			V222H53.3z M53.3,144.8v-35.3H4.5v35.3H53.3z M53.3,105.8V70.5H4.5v35.3H53.3z"/>
		<rect x="418.6" y="420.8" class="st0" width="63.8" height="61.5"/>
		<rect x="431.3" y="381.8" class="st0" width="51" height="34.5"/>
		<rect x="418.6" y="342.8" class="st0" width="63.8" height="34.5"/>
		<rect x="431.3" y="303.8" class="st0" width="51" height="34.5"/>
		<rect x="418.6" y="265.5" class="st0" width="63.8" height="33.8"/>
		<rect x="418.6" y="226.5" class="st0" width="63.8" height="33.8"/>
		<rect x="430.6" y="187.5" class="st0" width="51.8" height="34.5"/>
		<rect x="418.6" y="149.3" class="st0" width="63.8" height="33.8"/>
		<rect x="430.6" y="110.3" class="st0" width="51.8" height="34.5"/>
		<rect x="430.6" y="70.5" class="st0" width="51.8" height="35.3"/>
		<rect x="418.6" y="5.3" class="st0" width="63.8" height="61.5"/>
		<rect x="418.6" y="381.8" class="st1" width="9" height="34.5"/>
		<rect x="418.6" y="303.8" class="st1" width="9" height="34.5"/>
		<rect x="418.6" y="187.5" class="st2" width="8.3" height="34.5"/>
		<rect x="418.6" y="110.3" class="st2" width="8.3" height="34.5"/>
		<rect x="418.6" y="70.5" class="st2" width="8.3" height="35.3"/>
		<rect x="379.5" y="432.8" class="st0" width="34.5" height="49.5"/>
		<rect x="379.5" y="420.8" class="st3" width="34.5" height="8.3"/>
		<rect x="69.8" y="70.5" class="st0" width="344.3" height="345.8"/>
		<rect x="379.5" y="58.5" class="st4" width="34.5" height="8.3"/>
		<rect x="379.5" y="5.3" class="st0" width="34.5" height="49.5"/>
		<rect x="341.3" y="420.8" class="st0" width="34.5" height="61.5"/>
		<rect x="341.3" y="5.3" class="st0" width="34.5" height="61.5"/>
		<rect x="302.3" y="432.8" class="st0" width="34.5" height="49.5"/>
		<rect x="302.3" y="420.8" class="st3" width="34.5" height="8.3"/>
		<rect x="302.3" y="58.5" class="st4" width="34.5" height="8.3"/>
		<rect x="302.3" y="5.3" class="st0" width="34.5" height="49.5"/>
		<rect x="263.3" y="420.8" class="st0" width="34.5" height="61.5"/>
		<rect x="263.3" y="58.5" class="st4" width="34.5" height="8.3"/>
		<rect x="263.3" y="5.3" class="st0" width="34.5" height="49.5"/>
		<rect x="224.3" y="420.8" class="st0" width="34.5" height="61.5"/>
		<rect x="224.3" y="5.3" class="st0" width="34.5" height="61.5"/>
		<rect x="185.3" y="432.1" class="st0" width="35.3" height="50.3"/>
		<rect x="185.3" y="420.8" class="st5" width="35.3" height="7.5"/>
		<rect x="186" y="58.5" class="st6" width="33.8" height="8.3"/>
		<rect x="186" y="5.3" class="st0" width="33.8" height="49.5"/>
		<rect x="147" y="420.8" class="st0" width="34.5" height="61.5"/>
		<rect x="147" y="58.5" class="st6" width="34.5" height="8.3"/>
		<rect x="147" y="5.3" class="st0" width="34.5" height="49.5"/>
		<rect x="108" y="432.1" class="st0" width="34.5" height="50.3"/>
		<rect x="108" y="420.8" class="st5" width="34.5" height="7.5"/>
		<rect x="108" y="5.3" class="st0" width="34.5" height="61.5"/>
		<rect x="69.8" y="432.1" class="st0" width="33.8" height="50.3"/>
		<rect x="69.8" y="420.8" class="st5" width="33.8" height="7.5"/>
		<rect x="69.8" y="58.5" class="st6" width="33.8" height="8.3"/>
		<rect x="69.8" y="5.3" class="st0" width="33.8" height="49.5"/>
		<rect x="4.5" y="420.8" class="st0" width="60.8" height="61.5"/>
		<rect x="57" y="381.8" class="st7" width="8.3" height="34.5"/>
		<rect x="4.5" y="342.8" class="st0" width="60.8" height="34.5"/>
		<rect x="57" y="303.8" class="st7" width="8.3" height="34.5"/>
		<rect x="57" y="264.8" class="st7" width="8.3" height="35.3"/>
		<rect x="4.5" y="226.5" class="st0" width="60.8" height="34.5"/>
		<rect x="57" y="187.5" class="st8" width="8.3" height="34.5"/>
		<rect x="4.5" y="148.5" class="st0" width="60.8" height="35.3"/>
		<rect x="57" y="109.5" class="st8" width="8.3" height="35.3"/>
		<rect x="57" y="70.5" class="st8" width="8.3" height="35.3"/>
		<rect x="4.5" y="5.3" class="st0" width="60.8" height="61.5"/>
		<rect x="4.5" y="381.8" class="st0" width="48.8" height="34.5"/>
		<rect x="4.5" y="303.8" class="st0" width="48.8" height="34.5"/>
		<rect x="4.5" y="264.8" class="st0" width="48.8" height="35.3"/>
		<rect x="4.5" y="187.5" class="st0" width="48.8" height="34.5"/>
		<rect x="4.5" y="109.5" class="st0" width="48.8" height="35.3"/>
		<rect x="4.5" y="70.5" class="st0" width="48.8" height="35.3"/>
	</g>
	<g>
		<rect class="st9" width="487.6" height="487.6"/>
		<rect x="4.5" y="5.3" class="st9" width="60.8" height="61.5"/>
		<rect x="69.8" y="5.3" class="st9" width="33.8" height="49.5"/>
		<rect x="108" y="5.3" class="st9" width="34.5" height="61.5"/>
		<rect x="147" y="5.3" class="st9" width="34.5" height="49.5"/>
		<rect x="186" y="5.3" class="st9" width="33.8" height="49.5"/>
		<rect x="224.3" y="5.3" class="st9" width="34.5" height="61.5"/>
		<rect x="263.3" y="5.3" class="st9" width="34.5" height="49.5"/>
		<rect x="302.3" y="5.3" class="st9" width="34.5" height="49.5"/>
		<rect x="341.3" y="5.3" class="st9" width="34.5" height="61.5"/>
		<rect x="379.5" y="5.3" class="st9" width="34.5" height="49.5"/>
		<rect x="418.6" y="5.3" class="st9" width="63.8" height="61.5"/>
		<rect x="69.8" y="58.5" class="st9" width="33.8" height="8.3"/>
		<rect x="147" y="58.5" class="st9" width="34.5" height="8.3"/>
		<rect x="186" y="58.5" class="st9" width="33.8" height="8.3"/>
		<rect x="263.3" y="58.5" class="st9" width="34.5" height="8.3"/>
		<rect x="302.3" y="58.5" class="st9" width="34.5" height="8.3"/>
		<rect x="379.5" y="58.5" class="st9" width="34.5" height="8.3"/>
		<rect x="4.5" y="70.5" class="st9" width="48.8" height="35.3"/>
		<rect x="57" y="70.5" class="st9" width="8.3" height="35.3"/>
		<rect x="69.8" y="70.5" class="st9" width="344.3" height="345.8"/>
		<rect x="418.6" y="70.5" class="st9" width="8.3" height="35.3"/>
		<rect x="430.6" y="70.5" class="st9" width="51.8" height="35.3"/>
		<rect x="4.5" y="109.5" class="st9" width="48.8" height="35.3"/>
		<rect x="57" y="109.5" class="st9" width="8.3" height="35.3"/>
		<rect x="418.6" y="110.3" class="st9" width="8.3" height="34.5"/>
		<rect x="430.6" y="110.3" class="st9" width="51.8" height="34.5"/>
		<rect x="4.5" y="148.5" class="st9" width="60.8" height="35.3"/>
		<rect x="418.6" y="149.3" class="st9" width="63.8" height="33.8"/>
		<rect x="4.5" y="187.5" class="st9" width="48.8" height="34.5"/>
		<rect x="57" y="187.5" class="st9" width="8.3" height="34.5"/>
		<rect x="418.6" y="187.5" class="st9" width="8.3" height="34.5"/>
		<rect x="430.6" y="187.5" class="st9" width="51.8" height="34.5"/>
		<rect x="4.5" y="226.5" class="st9" width="60.8" height="34.5"/>
		<rect x="418.6" y="226.5" class="st9" width="63.8" height="33.8"/>
		<rect x="4.5" y="264.8" class="st9" width="48.8" height="35.3"/>
		<rect x="57" y="264.8" class="st9" width="8.3" height="35.3"/>
		<rect x="418.6" y="265.5" class="st9" width="63.8" height="33.8"/>
		<rect x="4.5" y="303.8" class="st9" width="48.8" height="34.5"/>
		<rect x="57" y="303.8" class="st9" width="8.3" height="34.5"/>
		<rect x="418.6" y="303.8" class="st9" width="9" height="34.5"/>
		<rect x="431.3" y="303.8" class="st9" width="51" height="34.5"/>
		<rect x="4.5" y="342.8" class="st9" width="60.8" height="34.5"/>
		<rect x="418.6" y="342.8" class="st9" width="63.8" height="34.5"/>
		<rect x="4.5" y="381.8" class="st9" width="48.8" height="34.5"/>
		<rect x="57" y="381.8" class="st9" width="8.3" height="34.5"/>
		<rect x="418.6" y="381.8" class="st9" width="9" height="34.5"/>
		<rect x="431.3" y="381.8" class="st9" width="51" height="34.5"/>
		<rect x="4.5" y="420.8" class="st9" width="60.8" height="61.5"/>
		<rect x="69.8" y="420.8" class="st9" width="33.8" height="7.5"/>
		<rect x="108" y="420.8" class="st9" width="34.5" height="7.5"/>
		<rect x="147" y="420.8" class="st9" width="34.5" height="61.5"/>
		<rect x="185.3" y="420.8" class="st9" width="35.3" height="7.5"/>
		<rect x="224.3" y="420.8" class="st9" width="34.5" height="61.5"/>
		<rect x="263.3" y="420.8" class="st9" width="34.5" height="61.5"/>
		<rect x="302.3" y="420.8" class="st9" width="34.5" height="8.3"/>
		<rect x="341.3" y="420.8" class="st9" width="34.5" height="61.5"/>
		<rect x="379.5" y="420.8" class="st9" width="34.5" height="8.3"/>
		<rect x="418.6" y="420.8" class="st9" width="63.8" height="61.5"/>
		<rect x="69.8" y="432.1" class="st9" width="33.8" height="50.3"/>
		<rect x="108" y="432.1" class="st9" width="34.5" height="50.3"/>
		<rect x="185.3" y="432.1" class="st9" width="35.3" height="50.3"/>
		<rect x="302.3" y="432.8" class="st9" width="34.5" height="49.5"/>
		<rect x="379.5" y="432.8" class="st9" width="34.5" height="49.5"/>
	</g>
</g>
<g id="Page-1">
	<g id="_x30_11---Boardgame-Piece" transform="translate(-1 -1)">
		<path id="Shape" class="st10" d="M44.2,46.4c2.9-2.7,1.9-4.6,1.9-4.6l6.2-5.9c0.5-0.5,0.8-1.1,0.8-1.8c0-0.7-0.3-1.3-0.8-1.8
			l-2.6-2.5c-0.5-0.4-1.1-0.7-1.7-0.7l-4.5-0.3c-0.4,0-0.8-0.3-1.1-0.6l-6-9.8c-1.1-1.7-3.3-2.4-5.2-1.6c-3,1.3-7.8,3.9-11,6.9
			S14.3,31.1,13,34c-0.8,1.8-0.1,3.9,1.7,4.9l10.3,5.7c0.4,0.2,0.6,0.6,0.7,1l0.3,4.3c0,0.6,0.3,1.2,0.8,1.6l2.6,2.5
			c0.5,0.5,1.2,0.8,1.9,0.8s1.4-0.3,1.9-0.8l6.2-5.9C39.4,48.2,41.4,49.1,44.2,46.4z"/>
		<path id="Shape_1_" class="st11" d="M52.4,32.2l-2.6-2.5c-0.5-0.4-1.1-0.7-1.7-0.7l-4.5-0.3c-0.4,0-0.8-0.3-1.1-0.6l-6-9.8
			c-0.9-1.5-2.8-2.2-4.6-1.8c1,0.3,1.9,0.9,2.4,1.8l6,9.8c0.2,0.4,0.6,0.6,1.1,0.6l4.5,0.3c0.6,0,1.3,0.3,1.7,0.7l2.7,2.5
			c0.5,0.5,0.8,1.1,0.8,1.8s-0.3,1.3-0.8,1.8l-6.2,5.9c0,0,1,1.8-1.9,4.6c-2.9,2.7-4.8,1.8-4.8,1.8l-6.2,6c-0.2,0.2-0.5,0.4-0.8,0.5
			c1,0.5,2.2,0.2,3-0.5l6.2-5.9c0,0,1.9,0.9,4.8-1.8s1.9-4.6,1.9-4.6l6.2-6c0.5-0.5,0.8-1.1,0.8-1.8C53.2,33.4,52.9,32.7,52.4,32.2z
			"/>
		<path id="Shape_2_" class="st12" d="M33,22.1l1.7,2.7c0.2,0.3,0.3,0.6,0.2,1c-0.1,0.3-0.3,0.6-0.6,0.8c-2.2,1.2-4.3,2.7-6.2,4.5
			c-1.8,1.8-3.4,3.8-4.7,5.9c-0.2,0.3-0.5,0.5-0.8,0.6s-0.7,0-1-0.2l-2.8-1.6c-0.7-0.4-0.9-1.1-0.5-1.8c1.5-2.6,3.3-5,5.5-7.2
			c2.3-2,4.8-3.8,7.5-5.2C31.8,21.2,32.7,21.4,33,22.1z"/>
		<path id="Shape_3_" class="st13" d="M34.7,24.8L33,22.1c-0.4-0.6-1.2-0.9-1.9-0.5c-0.2,0.1-0.4,0.2-0.5,0.3
			c0.1,0.1,0.1,0.1,0.2,0.2l1.7,2.7c0.2,0.3,0.3,0.6,0.2,1c-0.1,0.3-0.3,0.6-0.6,0.8c-2.2,1.2-4.3,2.7-6.2,4.5
			c-1.8,1.8-3.4,3.8-4.7,5.9c0,0-0.1,0.1-0.1,0.1l0.5,0.3c0.3,0.2,0.7,0.2,1,0.2s0.7-0.3,0.8-0.6c1.3-2.1,2.9-4.1,4.7-5.9
			c1.9-1.7,4-3.2,6.2-4.5c0.3-0.2,0.5-0.5,0.6-0.8C35,25.4,34.9,25,34.7,24.8L34.7,24.8z"/>
		<path id="Shape_4_" class="st12" d="M42.3,56.5l-1,0.9c-0.3,0.2-0.6,0.4-1,0.4s-0.7-0.1-1-0.4l-4.8-4.6l2.9-2.7l4.8,4.6
			c0.3,0.2,0.4,0.6,0.4,0.9S42.6,56.2,42.3,56.5L42.3,56.5z"/>
		<path id="Shape_5_" class="st13" d="M42.3,54.6l-4.8-4.6l-1.1,1.1l3.7,3.5c0.3,0.2,0.4,0.6,0.4,0.9c0,0.3-0.1,0.7-0.4,0.9
			l-0.8,0.8l0.2,0.2c0.3,0.2,0.6,0.4,1,0.4s0.7-0.1,1-0.4l1-0.9c0.3-0.2,0.4-0.6,0.4-0.9C42.7,55.2,42.6,54.9,42.3,54.6z"/>
		<path id="Shape_6_" class="st12" d="M55.7,43.7l-1,0.9c-0.3,0.2-0.6,0.4-1,0.4s-0.7-0.1-1-0.4L48.1,40l2.9-2.7l4.8,4.6
			c0.3,0.2,0.4,0.6,0.4,0.9S56,43.4,55.7,43.7z"/>
		<path id="Shape_7_" class="st13" d="M55.7,41.8L51,37.3l-1.1,1.1l3.7,3.5c0.3,0.2,0.4,0.6,0.4,0.9s-0.1,0.7-0.4,0.9l-0.8,0.8
			l0.2,0.2c0.3,0.2,0.6,0.4,1,0.4s0.7-0.1,1-0.4l1-0.9c0.3-0.2,0.4-0.6,0.4-0.9S56,42.1,55.7,41.8L55.7,41.8z"/>
		<ellipse id="Oval" class="st10" cx="36.1" cy="38.6" rx="7.5" ry="7.1"/>
		<path id="Shape_8_" class="st11" d="M41.4,33.6c-1.7-1.6-4.1-2.3-6.4-2c3.6,0.5,6.3,3.5,6.3,7c0,3.5-2.7,6.5-6.3,7
			c3.2,0.5,6.3-1.1,7.8-3.8C44.2,39.1,43.6,35.8,41.4,33.6L41.4,33.6z"/>
		<ellipse id="Oval_1_" class="st12" cx="36.1" cy="38.6" rx="2" ry="1.9"/>
		<path id="Shape_9_" class="st0" d="M13,34c-0.8,1.8-0.1,3.9,1.7,4.9l10.3,5.7c0.4,0.2,0.6,0.6,0.7,1l0.3,4.3
			c0,0.6,0.3,1.2,0.8,1.6c3,2.8,2.8,2.8,3.4,3c0.7,0.3,1.5,0.3,2.2,0c-0.6-0.3-0.5-0.2-3.4-3c-0.5-0.4-0.7-1-0.8-1.6l-0.3-4.3
			c0-0.4-0.3-0.8-0.7-1l-10.3-5.7c-1.8-1-2.5-3.1-1.7-4.9c1.3-2.9,4.1-7.5,7.3-10.5c3.4-3.2,9.6-6.6,11.5-7.1
			c-0.7-0.2-1.5-0.2-2.2,0c-1.9,0.5-8.1,3.9-11.5,7.1C17.1,26.5,14.3,31.1,13,34L13,34z"/>
		<path id="Shape_10_" class="st0" d="M15.2,28.6l1.3,0.8c-1.1,1.6-2,3.2-2.8,4.9l-1.4-0.6C13.1,31.9,14.1,30.2,15.2,28.6z"/>
		<g>
			<path id="Shape_11_" class="st14" d="M14.3,32.2c-0.4,0-0.8-0.3-0.8-0.7c0-0.4,0.3-0.7,0.7-0.7h0c0.4,0,0.8,0.3,0.8,0.7
				S14.7,32.2,14.3,32.2z"/>
			<path id="Shape_12_" class="st14" d="M13.3,33.3c-0.4-0.2-0.8,0-1,0.4c-1,2.1-0.2,4.7,2,5.8l10.3,5.7c0.2,0.1,0.3,0.3,0.3,0.5
				l0.3,4.3c0.1,0.8,0.4,1.5,1,2.1l2.6,2.5c1.4,1.3,3.5,1.3,4.9,0l0.9-0.9l4.3,4.1c0.8,0.8,2.2,0.8,3,0l1-0.9c0.8-0.8,0.8-2.1,0-2.8
				l-4.3-4.1l1.1-1c0.9,0.2,2.8,0.1,5.1-2.1s2.4-4,2.2-4.9l1.1-1l4.3,4.1c0.8,0.8,2.2,0.8,3,0l1-0.9c0.8-0.8,0.8-2.1,0-2.8L52,37.3
				l0.9-0.9c1.3-1.3,1.3-3.4,0-4.7l-2.6-2.5c-0.6-0.6-1.4-0.9-2.2-1l-4.5-0.3c-0.2,0-0.4-0.1-0.5-0.3l-6-9.8c-1.2-2-3.9-2.8-6.1-1.9
				c-4.1,1.8-7.9,4.2-11.2,7.1c-1.7,1.7-3.2,3.6-4.5,5.6c-0.1,0.2-0.1,0.4-0.1,0.5s0.2,0.3,0.3,0.4c0.4,0.2,0.8,0.1,1-0.2
				c1.2-1.9,2.7-3.7,4.3-5.3c3.2-2.8,6.8-5.1,10.8-6.8c1.5-0.7,3.4-0.1,4.2,1.3l6,9.8c0.3,0.6,1,0.9,1.7,1l4.5,0.3
				c0.5,0,0.9,0.2,1.2,0.5l2.6,2.5c0.8,0.7,0.8,1.9,0,2.6l-2.7,2.5l-1.6,1.6l-1.9,1.8c-0.2,0.2-0.3,0.5-0.2,0.8
				c0,0.1,0.6,1.5-1.8,3.8c-2.4,2.3-3.9,1.7-3.9,1.7c-0.3-0.1-0.6-0.1-0.9,0.1L37,49.6l-1.6,1.6l-2.7,2.5c-0.8,0.7-2,0.7-2.8,0
				l-2.6-2.5c-0.3-0.3-0.5-0.7-0.6-1.2l-0.3-4.3c-0.1-0.7-0.4-1.2-1-1.6L15,38.3c-1.5-0.8-2-2.6-1.4-4
				C13.8,33.9,13.7,33.5,13.3,33.3L13.3,33.3z M51,38.3l4.3,4.1c0.2,0.2,0.2,0.6,0,0.8l-1,0.9c-0.1,0.1-0.3,0.2-0.4,0.2
				c-0.2,0-0.3-0.1-0.4-0.2L49.1,40l0.9-0.9L51,38.3z M41.8,55.1c0.2,0.2,0.2,0.6,0,0.8l-1,0.9c-0.2,0.2-0.6,0.2-0.9,0l-4.3-4.1
				l0.9-0.8l0.9-0.9L41.8,55.1z"/>
			<path id="Shape_13_" class="st14" d="M33.7,21.7c-0.6-0.9-1.9-1.3-2.9-0.8c-2.8,1.4-5.4,3.2-7.7,5.3c-2.2,2.2-4.1,4.7-5.6,7.4
				c-0.5,1-0.2,2.2,0.8,2.8l2.8,1.6c0.3,0.2,0.7,0.3,1.1,0.3c0.7,0,1.4-0.4,1.8-1c1.3-2.1,2.8-4,4.6-5.8c1.8-1.7,3.9-3.1,6.1-4.3
				c0.5-0.3,0.8-0.7,0.9-1.2c0.1-0.5,0-1.1-0.3-1.5L33.7,21.7z M34.2,25.6c0,0.1-0.1,0.3-0.3,0.3c-2.3,1.3-4.4,2.8-6.4,4.6
				c-1.8,1.8-3.5,3.9-4.8,6.1c-0.1,0.1-0.2,0.2-0.4,0.3c-0.2,0-0.3,0-0.5-0.1l-2.8-1.6c-0.3-0.2-0.4-0.5-0.3-0.8
				c1.4-2.6,3.2-4.9,5.3-7.1c2.2-2,4.7-3.7,7.4-5.1c0.1,0,0.2-0.1,0.3-0.1c0.2,0,0.5,0.1,0.6,0.3l1.7,2.7
				C34.2,25.3,34.2,25.4,34.2,25.6z"/>
			<path id="Shape_14_" class="st14" d="M30.3,44.2c2.3,2.2,5.9,2.9,9,1.7c3.1-1.2,5.1-4.1,5.1-7.2c0-3.2-2-6-5.1-7.2
				s-6.6-0.5-9,1.7c-1.5,1.5-2.4,3.5-2.4,5.5C27.9,40.7,28.7,42.7,30.3,44.2z M36.1,32.2c3.2,0,6,2.2,6.6,5.2c0.6,3-1.1,6-4,7.2
				s-6.4,0.2-8.1-2.4s-1.4-5.9,0.8-8.1C32.6,32.9,34.3,32.2,36.1,32.2L36.1,32.2z"/>
			<path id="Shape_15_" class="st14" d="M36.1,41.3c1.1,0,2.1-0.6,2.6-1.6s0.2-2.1-0.6-2.9c-1.1-1-2.8-1-3.9,0
				c-0.8,0.8-1,1.9-0.6,2.9C33.9,40.6,35,41.3,36.1,41.3z M35.2,37.8c0.3-0.3,0.8-0.4,1.2-0.3c0.4,0.1,0.8,0.4,0.9,0.9
				s0,0.9-0.3,1.2c-0.5,0.5-1.3,0.5-1.8,0C34.7,39,34.7,38.2,35.2,37.8z"/>
		</g>
	</g>
</g>
</svg>
